<mxfile host="app.diagrams.net" modified="2022-12-22T16:21:53.945Z" agent="5.0 (X11; Linux x86_64) AppleWebKit/537.36 (KHTML, like Gecko) Chrome/108.0.0.0 Safari/537.36" version="20.7.4" etag="WI4SzxI3anml3aQj-Djo" type="github">
  <diagram id="uaFAjTUZUK7tQtQhKzJD" name="Page-1">
    <mxGraphModel dx="1174" dy="728" grid="1" gridSize="10" guides="1" tooltips="1" connect="1" arrows="1" fold="1" page="1" pageScale="1" pageWidth="850" pageHeight="1100" math="0" shadow="0">
      <root>
        <mxCell id="0" />
        <mxCell id="1" parent="0" />
        <mxCell id="YoY8vkAIwVAyfLZJGc1o-3" value="" style="edgeStyle=orthogonalEdgeStyle;rounded=0;orthogonalLoop=1;jettySize=auto;html=1;" edge="1" parent="1" source="YoY8vkAIwVAyfLZJGc1o-1" target="YoY8vkAIwVAyfLZJGc1o-2">
          <mxGeometry relative="1" as="geometry" />
        </mxCell>
        <mxCell id="YoY8vkAIwVAyfLZJGc1o-1" value="fork RPC Server进程" style="rounded=0;whiteSpace=wrap;html=1;" vertex="1" parent="1">
          <mxGeometry x="23" y="130" width="120" height="60" as="geometry" />
        </mxCell>
        <mxCell id="YoY8vkAIwVAyfLZJGc1o-16" style="edgeStyle=orthogonalEdgeStyle;rounded=0;orthogonalLoop=1;jettySize=auto;html=1;" edge="1" parent="1" source="YoY8vkAIwVAyfLZJGc1o-2" target="YoY8vkAIwVAyfLZJGc1o-15">
          <mxGeometry relative="1" as="geometry" />
        </mxCell>
        <mxCell id="YoY8vkAIwVAyfLZJGc1o-2" value="循环fork TCP Server进程" style="whiteSpace=wrap;html=1;rounded=0;" vertex="1" parent="1">
          <mxGeometry x="23" y="220" width="120" height="60" as="geometry" />
        </mxCell>
        <mxCell id="YoY8vkAIwVAyfLZJGc1o-5" style="edgeStyle=orthogonalEdgeStyle;rounded=0;orthogonalLoop=1;jettySize=auto;html=1;" edge="1" parent="1" source="YoY8vkAIwVAyfLZJGc1o-4" target="YoY8vkAIwVAyfLZJGc1o-1">
          <mxGeometry relative="1" as="geometry" />
        </mxCell>
        <mxCell id="YoY8vkAIwVAyfLZJGc1o-4" value="主进程" style="rounded=0;whiteSpace=wrap;html=1;" vertex="1" parent="1">
          <mxGeometry x="23" y="40" width="120" height="60" as="geometry" />
        </mxCell>
        <mxCell id="YoY8vkAIwVAyfLZJGc1o-8" style="edgeStyle=orthogonalEdgeStyle;rounded=0;orthogonalLoop=1;jettySize=auto;html=1;" edge="1" parent="1" source="YoY8vkAIwVAyfLZJGc1o-6" target="YoY8vkAIwVAyfLZJGc1o-7">
          <mxGeometry relative="1" as="geometry" />
        </mxCell>
        <mxCell id="YoY8vkAIwVAyfLZJGc1o-6" value="RPC Server进程" style="rounded=0;whiteSpace=wrap;html=1;" vertex="1" parent="1">
          <mxGeometry x="170" y="40" width="120" height="60" as="geometry" />
        </mxCell>
        <mxCell id="YoY8vkAIwVAyfLZJGc1o-11" value="" style="edgeStyle=orthogonalEdgeStyle;rounded=0;orthogonalLoop=1;jettySize=auto;html=1;" edge="1" parent="1" source="YoY8vkAIwVAyfLZJGc1o-7" target="YoY8vkAIwVAyfLZJGc1o-10">
          <mxGeometry relative="1" as="geometry" />
        </mxCell>
        <mxCell id="YoY8vkAIwVAyfLZJGc1o-7" value="等待RPC请求&amp;nbsp;" style="rounded=0;whiteSpace=wrap;html=1;" vertex="1" parent="1">
          <mxGeometry x="170" y="130" width="120" height="60" as="geometry" />
        </mxCell>
        <mxCell id="YoY8vkAIwVAyfLZJGc1o-13" value="红包读写操作" style="edgeStyle=orthogonalEdgeStyle;rounded=0;orthogonalLoop=1;jettySize=auto;html=1;entryX=0;entryY=0.5;entryDx=0;entryDy=0;exitX=1;exitY=0.5;exitDx=0;exitDy=0;" edge="1" parent="1" source="YoY8vkAIwVAyfLZJGc1o-10" target="YoY8vkAIwVAyfLZJGc1o-12">
          <mxGeometry relative="1" as="geometry">
            <Array as="points">
              <mxPoint x="348" y="250" />
              <mxPoint x="348" y="250" />
            </Array>
            <mxPoint as="offset" />
          </mxGeometry>
        </mxCell>
        <mxCell id="YoY8vkAIwVAyfLZJGc1o-72" value="锁操作" style="edgeStyle=orthogonalEdgeStyle;rounded=0;orthogonalLoop=1;jettySize=auto;html=1;" edge="1" parent="1" source="YoY8vkAIwVAyfLZJGc1o-10" target="YoY8vkAIwVAyfLZJGc1o-71">
          <mxGeometry relative="1" as="geometry" />
        </mxCell>
        <mxCell id="YoY8vkAIwVAyfLZJGc1o-10" value="解析请求类型" style="rhombus;whiteSpace=wrap;html=1;" vertex="1" parent="1">
          <mxGeometry x="170" y="220" width="120" height="60" as="geometry" />
        </mxCell>
        <mxCell id="YoY8vkAIwVAyfLZJGc1o-12" value="响应读写结果" style="rounded=0;whiteSpace=wrap;html=1;" vertex="1" parent="1">
          <mxGeometry x="368" y="220" width="120" height="60" as="geometry" />
        </mxCell>
        <mxCell id="YoY8vkAIwVAyfLZJGc1o-15" value="等待终止信号" style="whiteSpace=wrap;html=1;rounded=0;" vertex="1" parent="1">
          <mxGeometry x="23" y="310" width="120" height="60" as="geometry" />
        </mxCell>
        <mxCell id="YoY8vkAIwVAyfLZJGc1o-33" style="edgeStyle=orthogonalEdgeStyle;rounded=0;orthogonalLoop=1;jettySize=auto;html=1;" edge="1" parent="1" source="YoY8vkAIwVAyfLZJGc1o-23" target="YoY8vkAIwVAyfLZJGc1o-32">
          <mxGeometry relative="1" as="geometry" />
        </mxCell>
        <mxCell id="YoY8vkAIwVAyfLZJGc1o-23" value="TCP Server进程" style="whiteSpace=wrap;html=1;rounded=0;" vertex="1" parent="1">
          <mxGeometry x="548" y="40" width="120" height="60" as="geometry" />
        </mxCell>
        <mxCell id="YoY8vkAIwVAyfLZJGc1o-35" style="edgeStyle=orthogonalEdgeStyle;rounded=0;orthogonalLoop=1;jettySize=auto;html=1;" edge="1" parent="1" source="YoY8vkAIwVAyfLZJGc1o-32" target="YoY8vkAIwVAyfLZJGc1o-34">
          <mxGeometry relative="1" as="geometry" />
        </mxCell>
        <mxCell id="YoY8vkAIwVAyfLZJGc1o-32" value="创建监听端口协程" style="rounded=0;whiteSpace=wrap;html=1;" vertex="1" parent="1">
          <mxGeometry x="548" y="130" width="120" height="60" as="geometry" />
        </mxCell>
        <mxCell id="YoY8vkAIwVAyfLZJGc1o-40" value="" style="edgeStyle=orthogonalEdgeStyle;rounded=0;orthogonalLoop=1;jettySize=auto;html=1;" edge="1" parent="1" source="YoY8vkAIwVAyfLZJGc1o-34" target="YoY8vkAIwVAyfLZJGc1o-39">
          <mxGeometry relative="1" as="geometry" />
        </mxCell>
        <mxCell id="YoY8vkAIwVAyfLZJGc1o-34" value="循环创建空闲协程" style="rounded=0;whiteSpace=wrap;html=1;" vertex="1" parent="1">
          <mxGeometry x="548" y="220" width="120" height="60" as="geometry" />
        </mxCell>
        <mxCell id="YoY8vkAIwVAyfLZJGc1o-44" style="edgeStyle=orthogonalEdgeStyle;rounded=0;orthogonalLoop=1;jettySize=auto;html=1;" edge="1" parent="1" source="YoY8vkAIwVAyfLZJGc1o-39" target="YoY8vkAIwVAyfLZJGc1o-43">
          <mxGeometry relative="1" as="geometry" />
        </mxCell>
        <mxCell id="YoY8vkAIwVAyfLZJGc1o-39" value="等待用户消息" style="rounded=0;whiteSpace=wrap;html=1;" vertex="1" parent="1">
          <mxGeometry x="548" y="310" width="120" height="60" as="geometry" />
        </mxCell>
        <mxCell id="YoY8vkAIwVAyfLZJGc1o-46" value="发红包" style="edgeStyle=orthogonalEdgeStyle;rounded=0;orthogonalLoop=1;jettySize=auto;html=1;" edge="1" parent="1" source="YoY8vkAIwVAyfLZJGc1o-43" target="YoY8vkAIwVAyfLZJGc1o-45">
          <mxGeometry relative="1" as="geometry" />
        </mxCell>
        <mxCell id="YoY8vkAIwVAyfLZJGc1o-54" value="抢红包" style="edgeStyle=orthogonalEdgeStyle;rounded=0;orthogonalLoop=1;jettySize=auto;html=1;exitX=0.5;exitY=1;exitDx=0;exitDy=0;entryX=0.5;entryY=0;entryDx=0;entryDy=0;" edge="1" parent="1" source="YoY8vkAIwVAyfLZJGc1o-43" target="YoY8vkAIwVAyfLZJGc1o-53">
          <mxGeometry relative="1" as="geometry">
            <mxPoint x="608" y="507" as="sourcePoint" />
            <mxPoint x="608" y="547" as="targetPoint" />
          </mxGeometry>
        </mxCell>
        <mxCell id="YoY8vkAIwVAyfLZJGc1o-43" value="解析消息类型" style="rhombus;whiteSpace=wrap;html=1;" vertex="1" parent="1">
          <mxGeometry x="548" y="400" width="120" height="60" as="geometry" />
        </mxCell>
        <mxCell id="YoY8vkAIwVAyfLZJGc1o-48" value="" style="edgeStyle=orthogonalEdgeStyle;rounded=0;orthogonalLoop=1;jettySize=auto;html=1;" edge="1" parent="1" source="YoY8vkAIwVAyfLZJGc1o-45" target="YoY8vkAIwVAyfLZJGc1o-47">
          <mxGeometry relative="1" as="geometry" />
        </mxCell>
        <mxCell id="YoY8vkAIwVAyfLZJGc1o-45" value="DB插入红包记录" style="whiteSpace=wrap;html=1;" vertex="1" parent="1">
          <mxGeometry x="368" y="400" width="120" height="60" as="geometry" />
        </mxCell>
        <mxCell id="YoY8vkAIwVAyfLZJGc1o-50" style="edgeStyle=orthogonalEdgeStyle;rounded=0;orthogonalLoop=1;jettySize=auto;html=1;" edge="1" parent="1" source="YoY8vkAIwVAyfLZJGc1o-47" target="YoY8vkAIwVAyfLZJGc1o-49">
          <mxGeometry relative="1" as="geometry" />
        </mxCell>
        <mxCell id="YoY8vkAIwVAyfLZJGc1o-47" value="RPC缓存红包" style="whiteSpace=wrap;html=1;" vertex="1" parent="1">
          <mxGeometry x="368" y="490" width="120" height="60" as="geometry" />
        </mxCell>
        <mxCell id="YoY8vkAIwVAyfLZJGc1o-52" value="" style="edgeStyle=orthogonalEdgeStyle;rounded=0;orthogonalLoop=1;jettySize=auto;html=1;" edge="1" parent="1" source="YoY8vkAIwVAyfLZJGc1o-49" target="YoY8vkAIwVAyfLZJGc1o-51">
          <mxGeometry relative="1" as="geometry" />
        </mxCell>
        <mxCell id="YoY8vkAIwVAyfLZJGc1o-49" value="响应用户" style="whiteSpace=wrap;html=1;" vertex="1" parent="1">
          <mxGeometry x="368" y="580" width="120" height="60" as="geometry" />
        </mxCell>
        <mxCell id="YoY8vkAIwVAyfLZJGc1o-51" value="广播新红包的消息" style="whiteSpace=wrap;html=1;" vertex="1" parent="1">
          <mxGeometry x="368" y="670" width="120" height="60" as="geometry" />
        </mxCell>
        <mxCell id="YoY8vkAIwVAyfLZJGc1o-57" style="edgeStyle=orthogonalEdgeStyle;rounded=0;orthogonalLoop=1;jettySize=auto;html=1;" edge="1" parent="1" source="YoY8vkAIwVAyfLZJGc1o-53" target="YoY8vkAIwVAyfLZJGc1o-56">
          <mxGeometry relative="1" as="geometry" />
        </mxCell>
        <mxCell id="YoY8vkAIwVAyfLZJGc1o-53" value="RPC查询红包" style="whiteSpace=wrap;html=1;" vertex="1" parent="1">
          <mxGeometry x="548" y="490" width="120" height="60" as="geometry" />
        </mxCell>
        <mxCell id="YoY8vkAIwVAyfLZJGc1o-59" value="为0" style="edgeStyle=orthogonalEdgeStyle;rounded=0;orthogonalLoop=1;jettySize=auto;html=1;entryX=0;entryY=0.5;entryDx=0;entryDy=0;" edge="1" parent="1" source="YoY8vkAIwVAyfLZJGc1o-56" target="YoY8vkAIwVAyfLZJGc1o-58">
          <mxGeometry relative="1" as="geometry">
            <mxPoint x="703" y="680" as="targetPoint" />
          </mxGeometry>
        </mxCell>
        <mxCell id="YoY8vkAIwVAyfLZJGc1o-61" value="大于0" style="edgeStyle=orthogonalEdgeStyle;rounded=0;orthogonalLoop=1;jettySize=auto;html=1;" edge="1" parent="1" source="YoY8vkAIwVAyfLZJGc1o-56" target="YoY8vkAIwVAyfLZJGc1o-60">
          <mxGeometry relative="1" as="geometry" />
        </mxCell>
        <mxCell id="YoY8vkAIwVAyfLZJGc1o-56" value="判断红包数量" style="rhombus;whiteSpace=wrap;html=1;" vertex="1" parent="1">
          <mxGeometry x="548" y="580" width="120" height="60" as="geometry" />
        </mxCell>
        <mxCell id="YoY8vkAIwVAyfLZJGc1o-58" value="响应用户红包已抢完" style="whiteSpace=wrap;html=1;" vertex="1" parent="1">
          <mxGeometry x="708" y="580" width="120" height="60" as="geometry" />
        </mxCell>
        <mxCell id="YoY8vkAIwVAyfLZJGc1o-63" style="edgeStyle=orthogonalEdgeStyle;rounded=0;orthogonalLoop=1;jettySize=auto;html=1;" edge="1" parent="1" source="YoY8vkAIwVAyfLZJGc1o-60" target="YoY8vkAIwVAyfLZJGc1o-62">
          <mxGeometry relative="1" as="geometry" />
        </mxCell>
        <mxCell id="YoY8vkAIwVAyfLZJGc1o-60" value="RPC上锁" style="whiteSpace=wrap;html=1;" vertex="1" parent="1">
          <mxGeometry x="548" y="670" width="120" height="60" as="geometry" />
        </mxCell>
        <mxCell id="YoY8vkAIwVAyfLZJGc1o-65" value="" style="edgeStyle=orthogonalEdgeStyle;rounded=0;orthogonalLoop=1;jettySize=auto;html=1;" edge="1" parent="1" source="YoY8vkAIwVAyfLZJGc1o-62" target="YoY8vkAIwVAyfLZJGc1o-64">
          <mxGeometry relative="1" as="geometry" />
        </mxCell>
        <mxCell id="YoY8vkAIwVAyfLZJGc1o-62" value="分配红包" style="whiteSpace=wrap;html=1;" vertex="1" parent="1">
          <mxGeometry x="548" y="760" width="120" height="60" as="geometry" />
        </mxCell>
        <mxCell id="YoY8vkAIwVAyfLZJGc1o-74" value="" style="edgeStyle=orthogonalEdgeStyle;rounded=0;orthogonalLoop=1;jettySize=auto;html=1;" edge="1" parent="1" source="YoY8vkAIwVAyfLZJGc1o-64" target="YoY8vkAIwVAyfLZJGc1o-73">
          <mxGeometry relative="1" as="geometry" />
        </mxCell>
        <mxCell id="YoY8vkAIwVAyfLZJGc1o-64" value="RPC更新红包缓存" style="whiteSpace=wrap;html=1;" vertex="1" parent="1">
          <mxGeometry x="548" y="850" width="120" height="60" as="geometry" />
        </mxCell>
        <mxCell id="YoY8vkAIwVAyfLZJGc1o-71" value="更新锁操作结果" style="whiteSpace=wrap;html=1;" vertex="1" parent="1">
          <mxGeometry x="170" y="310" width="120" height="60" as="geometry" />
        </mxCell>
        <mxCell id="YoY8vkAIwVAyfLZJGc1o-76" value="" style="edgeStyle=orthogonalEdgeStyle;rounded=0;orthogonalLoop=1;jettySize=auto;html=1;" edge="1" parent="1" source="YoY8vkAIwVAyfLZJGc1o-73" target="YoY8vkAIwVAyfLZJGc1o-75">
          <mxGeometry relative="1" as="geometry" />
        </mxCell>
        <mxCell id="YoY8vkAIwVAyfLZJGc1o-73" value="RPC解锁" style="whiteSpace=wrap;html=1;" vertex="1" parent="1">
          <mxGeometry x="548" y="940" width="120" height="60" as="geometry" />
        </mxCell>
        <mxCell id="YoY8vkAIwVAyfLZJGc1o-75" value="响应用户抢红包结果" style="whiteSpace=wrap;html=1;" vertex="1" parent="1">
          <mxGeometry x="548" y="1030" width="120" height="60" as="geometry" />
        </mxCell>
      </root>
    </mxGraphModel>
  </diagram>
</mxfile>
